<?xml version="1.0" encoding="UTF-8"?>
<svg xmlns="http://www.w3.org/2000/svg" xmlns:xlink="http://www.w3.org/1999/xlink" width="150pt" height="150pt" viewBox="0 0 150 150" version="1.1">
<g id="surface1">
<path style=" stroke:none;fill-rule:nonzero;fill:rgb(14.117647%,53.72549%,79.215686%);fill-opacity:1;" d="M 4.285156 53.621094 C 4.285156 53.621094 0.734375 51.015625 4.996094 47.535156 L 14.925781 38.496094 C 14.925781 38.496094 17.765625 35.449219 20.769531 38.101562 L 112.378906 108.734375 L 112.378906 142.601562 C 112.378906 142.601562 112.335938 147.921875 105.632812 147.332031 Z M 4.285156 53.621094 "/>
<path style=" stroke:none;fill-rule:nonzero;fill:rgb(6.27451%,43.921569%,70.196078%);fill-opacity:1;" d="M 27.898438 75.453125 L 4.285156 97.3125 C 4.285156 97.3125 1.859375 99.152344 4.285156 102.4375 L 15.25 112.589844 C 15.25 112.589844 17.855469 115.4375 21.699219 112.199219 L 46.734375 92.867188 Z M 27.898438 75.453125 "/>
<path style=" stroke:none;fill-rule:nonzero;fill:rgb(3.137255%,46.666667%,72.54902%);fill-opacity:1;" d="M 69.355469 75.632812 L 112.660156 41.960938 L 112.378906 8.269531 C 112.378906 8.269531 110.53125 0.917969 104.359375 4.746094 L 46.734375 58.15625 Z M 69.355469 75.632812 "/>
<path style=" stroke:none;fill-rule:nonzero;fill:rgb(23.529412%,60%,83.137255%);fill-opacity:1;" d="M 105.632812 147.378906 C 108.148438 150 111.195312 149.140625 111.195312 149.140625 L 144.945312 132.207031 C 149.265625 129.207031 148.65625 125.488281 148.65625 125.488281 L 148.65625 24.363281 C 148.65625 19.917969 144.1875 18.382812 144.1875 18.382812 L 114.9375 4.023438 C 108.546875 0 104.359375 4.746094 104.359375 4.746094 C 104.359375 4.746094 109.746094 0.796875 112.378906 8.269531 L 112.378906 141.984375 C 112.378906 142.902344 112.1875 143.808594 111.804688 144.621094 C 111.035156 146.203125 109.363281 147.679688 105.351562 147.0625 Z M 105.632812 147.378906 "/>
</g>
</svg>
